<svg xmlns="http://www.w3.org/2000/svg" width="27.444" height="23.449" viewBox="0 0 27.444 23.449"><defs><style>.a{fill:#031a2f;}</style></defs><g transform="translate(0 -37.27)"><g transform="translate(0 37.27)"><path class="a" d="M27.444,54.032a2.408,2.408,0,0,0-1.608-2.264V43.439l1.608-.663L13.722,37.27,0,42.776l13.722,5.506,10.506-4.2v7.684A2.4,2.4,0,0,0,24,56.2L22.662,60.21l1.525.509.846-2.537.846,2.537L27.4,60.21,26.066,56.2A2.408,2.408,0,0,0,27.444,54.032Z" transform="translate(0 -37.27)"/></g><g transform="translate(6.486 47.109)"><path class="a" d="M128.236,223.726,121,220.82v2.1c0,2.292,3.111,4.02,7.236,4.02s7.236-1.728,7.236-4.02v-2.1Z" transform="translate(-121 -220.82)"/></g></g></svg>