<svg xmlns="http://www.w3.org/2000/svg" width="31.911" height="31.911" viewBox="0 0 31.911 31.911"><defs><style>.a{fill:none;}</style></defs><path class="a" d="M0,0H31.911V31.911H0Z"/><path d="M12.637,25.6V21.147c0-1.706,1.323-3.048,3.28-3.813a11.323,11.323,0,0,0-10.656,1.5A10.66,10.66,0,0,0,12.637,25.6Zm11.807-4.869c-.525-.709-2.274-1.444-4.494-1.444-2.667,0-4.654,1.06-4.654,1.861v4.787a10.632,10.632,0,0,0,9.148-5.2Zm-12.406-6.1A2.992,2.992,0,1,0,9.047,11.64,2.992,2.992,0,0,0,12.039,14.632Zm7.911,1.33A2.659,2.659,0,1,0,17.291,13.3,2.659,2.659,0,0,0,19.95,15.961ZM15.3,28.593a13.3,13.3,0,1,1,13.3-13.3A13.3,13.3,0,0,1,15.3,28.593Z" transform="translate(0.659 0.659)"/></svg>