<svg xmlns="http://www.w3.org/2000/svg" width="17.86" height="17.86" viewBox="0 0 17.86 17.86"><defs><style>.a{fill:none;}.b{fill:#1a3bf0;}</style></defs><path class="a" d="M0,0H17.86V17.86H0Z"/><path class="b" d="M11.121,6.117h4.763A1.488,1.488,0,0,1,17.372,7.6V9.171a1.488,1.488,0,0,1-.112.567l-2.3,5.592a.744.744,0,0,1-.688.461H1.744A.744.744,0,0,1,1,15.047V7.6a.744.744,0,0,1,.744-.744H4.335a.744.744,0,0,0,.608-.315L9,.8a.372.372,0,0,1,.47-.118l1.35.675a1.86,1.86,0,0,1,.971,2.123ZM5.465,8.042V14.3h8.3l2.113-5.132V7.6H11.121A1.488,1.488,0,0,1,9.678,5.75l.672-2.64a.372.372,0,0,0-.194-.425l-.492-.246L6.159,7.4a2.245,2.245,0,0,1-.694.638Zm-1.488.307H2.488V14.3H3.977Z" transform="translate(-0.256 -0.163)"/></svg>