<svg xmlns="http://www.w3.org/2000/svg" width="32.743" height="21.402" viewBox="0 0 32.743 21.402"><defs><style>.a{fill:#08eb5f;}</style></defs><path class="a" d="M25.482-8.156a4.093,4.093,0,0,1-3.142,1.365,4.2,4.2,0,0,1-3.177-1.365,4.587,4.587,0,0,1-1.292-3.268,4.464,4.464,0,0,1,1.292-3.232,4.257,4.257,0,0,1,3.177-1.329,4.257,4.257,0,0,1,3.177,1.329,4.464,4.464,0,0,1,1.292,3.232A4.523,4.523,0,0,1,25.482-8.156Zm-11.938,0a4.055,4.055,0,0,1-3.107,1.365A4.274,4.274,0,0,1,7.261-8.156a4.523,4.523,0,0,1-1.326-3.268,4.4,4.4,0,0,1,1.326-3.232,4.33,4.33,0,0,1,3.177-1.329,4.217,4.217,0,0,1,3.142,1.329,4.464,4.464,0,0,1,1.292,3.232A4.523,4.523,0,0,1,13.544-8.156ZM6.144-3.2a18.419,18.419,0,0,1,4.294-.575,17.569,17.569,0,0,1,4.224.575A13.649,13.649,0,0,1,18.92-1.334a3.61,3.61,0,0,1,1.955,2.945V5.417H0V1.611A3.616,3.616,0,0,1,1.92-1.334,13.231,13.231,0,0,1,6.144-3.2Zm16.2-.575A17.687,17.687,0,0,1,26.6-3.2a13.232,13.232,0,0,1,4.224,1.867,3.616,3.616,0,0,1,1.92,2.945V5.417H23.807V1.611A6.531,6.531,0,0,0,20.874-3.7Q21.782-3.775,22.341-3.775Z" transform="translate(0 15.984)"/></svg>