<svg xmlns="http://www.w3.org/2000/svg" width="28.315" height="28.315" viewBox="0 0 28.315 28.315"><defs><style>.a{fill:none;}.b{fill:#031a2f;}</style></defs><path class="a" d="M0,0H28.315V28.315H0Z"/><path class="b" d="M23.056,25.6H4.18A1.18,1.18,0,0,1,3,24.416V9.079H24.236V24.416A1.18,1.18,0,0,1,23.056,25.6Zm1.18-18.876H3V3.18A1.18,1.18,0,0,1,4.18,2H23.056a1.18,1.18,0,0,1,1.18,1.18Zm-16.517,5.9v4.719h4.719V12.618Zm0,7.079v2.36h11.8V19.7ZM14.8,13.8v2.36h4.719V13.8Z" transform="translate(0.539 0.36)"/></svg>