<svg xmlns="http://www.w3.org/2000/svg" width="28.587" height="28.15" viewBox="0 0 28.587 28.15"><defs><style>.a{fill:#eb5933;}</style></defs><g transform="translate(0 -3.896)"><g transform="translate(0 3.896)"><path class="a" d="M25.683,18.114A24.725,24.725,0,0,0,27.752,14.8l.834-1.622-1.792.328a9.434,9.434,0,0,1-1.111.129,24.725,24.725,0,0,0,2.069-3.316l.833-1.62-1.792.329a9.526,9.526,0,0,1-7.069-1.47L14.282,3.9,0,13.49l3.336,2.241L0,17.971l3.336,2.241L0,22.452l14.282,9.594,5.246-3.526a24.868,24.868,0,0,0,8.225-9.244l.833-1.619-1.792.328A9.457,9.457,0,0,1,25.683,18.114ZM3.214,13.49,14.282,6.056l4.444,2.985a11.285,11.285,0,0,0,6.6,1.93,23.076,23.076,0,0,1-6.8,7.1l-4.246,2.854ZM18.528,27.033l-4.246,2.854L3.214,22.452l1.729-1.165,9.339,6.274,5.246-3.526a24.763,24.763,0,0,0,4.73-4.142c.358.026.717.04,1.075.033A23.065,23.065,0,0,1,18.528,27.033Zm0-4.481-4.246,2.854L3.214,17.971l1.729-1.165,9.339,6.274,5.246-3.526a24.763,24.763,0,0,0,4.73-4.142c.358.026.717.04,1.075.033A23.065,23.065,0,0,1,18.528,22.552Z" transform="translate(0 -3.896)"/><rect class="a" width="1.792" height="1.792" transform="translate(7.112 8.57)"/><rect class="a" width="1.792" height="1.792" transform="translate(10.697 6.777)"/><rect class="a" width="1.792" height="1.792" transform="translate(13.386 4.985)"/><rect class="a" width="1.792" height="1.792" transform="translate(10.697 10.362)"/><rect class="a" width="1.792" height="1.792" transform="translate(13.386 13.051)"/><rect class="a" width="1.792" height="1.792" transform="translate(14.282 8.57)"/><rect class="a" width="1.792" height="1.792" transform="translate(16.971 6.777)"/><rect class="a" width="1.792" height="1.792" transform="translate(16.971 10.362)"/></g></g></svg>